<svg width="667" height="397" viewBox="0 0 667 397" fill="none" xmlns="http://www.w3.org/2000/svg">
<g clip-path="url(#clip0)">
<path d="M129.356 82.9986H118.051V94.3039H108.159V82.9986H96.8539V73.1066H108.159V61.8013H118.051V73.1066H129.356V82.9986Z" fill="#C1D6F2"/>
<path d="M323.517 88.3319H312.213V99.6373H302.321V88.3319H291.016V78.4399H302.321V67.1346H312.213V78.4399H323.517V88.3319Z" fill="#C1D6F2"/>
<path d="M525.8 37.6653H514.496V48.9706H504.604V37.6653H493.297V27.7733H504.604V16.4679H514.496V27.7733H525.8V37.6653Z" fill="#C1D6F2"/>
<path d="M129.356 267.887H118.051V279.193H108.159V267.887H96.8539V257.995H108.159V246.691H118.051V257.995H129.356V267.887Z" fill="#C1D6F2"/>
<path d="M544.796 277.504C544.796 273.829 547.836 270.792 551.509 270.792C555.184 270.792 558.223 273.829 558.223 277.504C558.223 281.179 555.184 284.216 551.509 284.216C547.836 284.216 544.796 281.179 544.796 277.504V277.504ZM557.163 247.897C557.163 245.427 555.537 243.801 551.933 243.801C548.047 243.801 545.716 246.415 544.301 249.736L534.552 244.153C537.66 236.876 544.513 232.777 552.357 232.777C560.412 232.777 568.467 237.723 568.467 246.909C568.467 257.436 557.163 260.688 557.163 265.563H545.856C545.856 257.296 557.163 254.116 557.163 247.897Z" fill="#C1D6F2"/>
<path d="M166.129 44.6159C166.129 40.9413 169.168 37.904 172.843 37.904C176.517 37.904 179.555 40.9413 179.555 44.6159C179.555 48.2906 176.517 51.3279 172.843 51.3279C169.168 51.3279 166.129 48.2906 166.129 44.6159ZM178.495 15.0093C178.495 12.5373 176.871 10.9119 173.267 10.9119C169.38 10.9119 167.048 13.5253 165.635 16.8466L155.884 11.2653C158.993 3.98662 165.847 -0.110727 173.691 -0.110727C181.745 -0.110727 189.8 4.8346 189.8 14.0199C189.8 24.5479 178.495 27.7986 178.495 32.6746H167.189C167.189 24.4066 178.495 21.228 178.495 15.0093Z" fill="#C1D6F2"/>
<path d="M582.663 85.0039H576.161L575.173 90.6573H581.673L582.663 85.0039ZM590.717 85.0039L589.728 90.6573H597.217L596.016 98.4293H588.456L586.689 109.028H578.635L580.401 98.4293H573.901L572.133 109.028H564.079L565.847 98.4293H558.356L559.627 90.6573H567.117L568.107 85.0039H560.547L561.819 77.2319H569.379L571.145 66.6333H579.2L577.433 77.2319H583.933L585.7 66.6333H593.755L591.989 77.2319H599.408L598.136 85.0039H590.717Z" fill="#C1D6F2"/>
<path d="M377.571 55.6706H371.069L370.08 61.3239H376.581L377.571 55.6706ZM385.625 55.6706L384.636 61.3239H392.125L390.925 69.0959H383.364L381.599 79.6946H373.543L375.309 69.0959H368.809L367.043 79.6946H358.988L360.753 69.0959H353.264L354.536 61.3239H362.025L363.015 55.6706H355.455L356.727 47.8986H364.288L366.053 37.3H374.108L372.343 47.8986H378.843L380.609 37.3H388.664L386.899 47.8986H394.317L393.045 55.6706H385.625Z" fill="#C1D6F2"/>
<path d="M91.9962 329.448H85.4951L84.5061 335.101H91.0066L91.9962 329.448ZM100.051 329.448L99.0613 335.101H106.551L105.35 342.875H97.7894L96.0238 353.472H87.9686L89.7347 342.875H83.2347L81.4675 353.472H73.4129L75.1795 342.875H67.6899L68.9613 335.101H76.4509L77.4405 329.448H69.8801L71.1519 321.676H78.7123L80.479 311.077H88.5337L86.767 321.676H93.267L95.0342 311.077H103.089L101.323 321.676H108.742L107.47 329.448H100.051Z" fill="#C1D6F2"/>
<path d="M597.775 329.448H591.273L590.284 335.101H596.785L597.775 329.448ZM605.829 329.448L604.84 335.101H612.329L611.128 342.875H603.568L601.801 353.472H593.745L595.513 342.875H589.013L587.245 353.472H579.191L580.957 342.875H573.467L574.739 335.101H582.229L583.219 329.448H575.657L576.929 321.676H584.491L586.256 311.077H594.311L592.545 321.676H599.045L600.812 311.077H608.867L607.101 321.676H614.52L613.248 329.448H605.829Z" fill="#C1D6F2"/>
<path d="M466.625 284.788C465.816 285.977 463.511 285.824 462.351 285.609C460.907 285.34 459.633 284.389 458.531 283.533C455.021 280.807 451.517 278.119 448.296 274.995C446.699 273.444 444.692 272.207 443.42 270.409C443.139 270.012 443.227 268.471 443.224 267.975C443.22 267.181 444.124 267.255 444.776 267.291C448.441 267.496 451.673 269.612 454.655 271.545C455.795 272.285 456.773 273.219 457.919 273.975C459.667 275.128 461.437 276.297 462.992 277.692C464.197 278.775 465.356 280.241 466.149 281.656C466.544 282.36 467.096 283.337 466.944 284.212C466.847 284.772 466.504 285.107 466.625 284.788" fill="#ECA76C"/>
<path d="M444.267 271.877C443.404 271.237 443.225 270.092 443 269.12C442.251 265.905 442.06 262.549 441.744 259.239C441.485 256.527 441.851 253.747 441.339 251.005C440.857 248.444 439.66 245.968 439.416 243.344C439.284 241.9 439.281 239.612 440.063 238.077C440.376 237.46 441.215 237.347 441.681 237.859C441.911 238.107 442.115 238.371 442.24 238.605C442.552 239.193 442.555 240.208 442.759 240.892C443.151 242.209 443.776 243.573 444.044 244.893C444.26 244.319 444.183 243.232 444.132 242.288C444.117 241.999 444.525 241.923 444.616 242.199C445.027 243.459 445.387 245.015 445.512 246.02C445.673 247.317 444.969 249.025 445.091 250.337C445.305 252.655 446.244 254.341 446.828 256.601C447.788 260.325 449.531 264.329 449.125 268.259C449.025 269.243 449.273 270.908 448.435 271.641C447.844 272.159 445.144 272.528 444.267 271.877" fill="#ECA76C"/>
<path d="M470.908 279.061C470.132 278.387 468.788 278.42 467.756 278.081C466.4 277.636 464.983 277.045 463.773 276.299C463.121 275.896 462.508 275.457 461.833 275.127C461.152 274.795 460.401 274.601 459.769 274.163C459.209 273.776 458.816 273.192 458.187 273.637C457.617 274.041 457.179 274.643 456.632 275.099C455.656 275.913 454.708 276.825 454.167 277.992C453.777 278.827 453.703 279.699 453.396 280.531C454.135 280.976 454.716 281.64 455.459 282.085C456.436 282.673 457.407 283.213 458.264 283.985C458.94 284.593 459.496 285.329 460.024 286.052C460.924 287.283 460.747 288.335 460.66 289.789C460.516 292.157 459.853 294.528 459.849 296.897C460.251 296.639 460.596 296.205 461.012 295.924C461.664 295.484 462.472 295.267 463.049 294.717C464.219 293.603 464.303 291.628 464.645 290.153C465.233 287.619 466.081 285.159 467.901 283.231C468.709 282.373 469.305 281.604 469.895 280.569C470.195 280.043 470.533 279.403 470.884 278.955C470.799 279.187 470.689 279.408 470.908 279.061" fill="#C4DFF8"/>
<path d="M181.585 235.28C181.625 234.959 181.669 234.64 181.721 234.324C182.151 231.749 182.436 229.14 183.397 226.692C183.828 225.595 184.385 224.544 184.725 223.415C185.065 222.285 185.171 221.032 184.699 219.952C183.935 220.979 183.44 222.203 183.276 223.471C183.249 220.7 183.413 217.925 183.768 215.176C183.561 215.037 183.284 215.136 183.06 215.245C181.952 215.788 180.948 216.544 180.119 217.456C179.72 217.896 179.356 218.381 179.155 218.94C178.94 219.541 178.924 220.193 178.959 220.831C179.055 222.608 179.836 224.635 179.253 226.316C178.975 227.117 179.017 227.601 178.323 228.952C177.281 230.981 176.253 233.016 175.224 235.051C174.065 237.339 171.361 242.748 172.575 245.456C173.249 246.96 174.231 247.689 175.861 247.46C177.504 247.229 178.345 245.788 179.077 244.3C180.173 242.076 181.292 237.691 181.585 235.28" fill="#ECA76C"/>
<path d="M174.193 273.672C174.62 272.935 174.833 272.101 175.039 271.275C177.035 263.225 178.577 254.968 178.085 246.58C178.032 245.675 177.949 244.747 177.54 243.903C177.129 243.057 176.324 242.301 175.349 242.149C174.379 241.996 173.436 242.471 172.843 243.149C172.249 243.825 171.941 244.683 171.657 245.525C169.223 252.755 167.731 260.329 167.647 268.031C167.627 269.836 167.721 271.761 168.813 273.327C169.423 274.201 170.584 275.189 171.744 275.291C172.848 275.387 173.72 274.491 174.193 273.672" fill="#ECA76C"/>
<path d="M175.793 272.564C176.308 271.627 176.62 270.596 176.928 269.572C177.171 268.764 177.415 267.955 177.659 267.145C177.879 266.413 178.1 265.679 178.256 264.931C178.409 264.193 178.5 263.444 178.591 262.696C178.745 261.417 178.899 260.137 179.053 258.857C174.7 257.207 169.793 257.051 165.345 258.425C165.216 260.461 165.232 262.505 165.393 264.54C165.552 266.529 165.857 268.54 166.691 270.353C167.508 272.133 169.096 273.913 170.825 274.884C172.732 275.955 174.916 274.163 175.793 272.564" fill="#9EBEE6"/>
<path d="M-133.392 384.385C-105.171 381.351 -2.47359 397.214 27.1916 396.547C98.831 394.933 160.092 375.751 160.092 375.751" stroke="#C1D6F2" stroke-width="9.11793" stroke-miterlimit="10"/>
<path d="M91.9337 170.32C29.4722 170.32 -13.184 130.711 -73.3595 126.14C-133.536 121.569 -225.705 191.649 -307.971 202.313C-390.236 212.977 -506.019 132.139 -586 132.139" stroke="#2065BF" stroke-width="18.2359" stroke-miterlimit="10"/>
<path d="M217.129 172.701L221.427 93.3866C221.427 93.3866 198.861 93.3866 185.149 93.3866C163.441 93.3866 153.633 132.805 132.02 144.327C114.042 153.908 98.3134 154.112 89.1727 154.112C80.0321 154.112 79.3654 170.891 79.3654 170.891C79.3654 170.891 80.0321 187.671 89.1727 187.671C98.3134 187.671 114.042 187.875 132.02 197.456C153.633 208.977 163.441 248.396 185.149 248.396C198.861 248.396 221.427 248.396 221.427 248.396L216.819 172.697L217.129 172.701" fill="#57A9F2"/>
<path d="M263.703 170.891C263.703 143.735 259.848 119.299 253.705 102.277V77.7706H232.852C215.815 77.7706 202.003 119.463 202.003 170.891C202.003 222.321 215.815 264.012 232.852 264.012H253.705V239.505C259.848 222.484 263.703 198.048 263.703 170.891" fill="#3A7FD8"/>
<path d="M283.125 170.891C283.125 222.321 269.315 264.012 252.276 264.012C235.239 264.012 221.427 222.321 221.427 170.891C221.427 119.463 235.239 77.7706 252.276 77.7706C269.315 77.7706 283.125 119.463 283.125 170.891Z" fill="#BADCF2"/>
<path d="M256.276 136.328C256.276 142.995 254.485 148.4 252.276 148.4C250.068 148.4 248.277 142.995 248.277 136.328C248.277 129.661 250.068 124.257 252.276 124.257C254.485 124.257 256.276 129.661 256.276 136.328Z" fill="#2065BF"/>
<path d="M318.261 148.4H252.276V124.257H318.261V148.4Z" fill="#2065BF"/>
<path d="M332.332 136.328C332.332 142.995 326.927 148.4 320.26 148.4C313.593 148.4 308.189 142.995 308.189 136.328C308.189 129.661 313.593 124.257 320.26 124.257C326.927 124.257 332.332 129.661 332.332 136.328Z" fill="#2065BF"/>
<path d="M256.276 205.455C256.276 212.121 254.485 217.525 252.276 217.525C250.068 217.525 248.277 212.121 248.277 205.455C248.277 198.788 250.068 193.383 252.276 193.383C254.485 193.383 256.276 198.788 256.276 205.455Z" fill="#2065BF"/>
<path d="M318.261 217.525H252.276V193.383H318.261V217.525Z" fill="#2065BF"/>
<path d="M332.332 205.455C332.332 212.121 326.927 217.525 320.26 217.525C313.593 217.525 308.189 212.121 308.189 205.455C308.189 198.788 313.593 193.383 320.26 193.383C326.927 193.383 332.332 198.788 332.332 205.455Z" fill="#2065BF"/>
<path d="M516.504 384.385C544.724 381.351 620.668 396.502 650.34 396.547C715.684 396.645 815.983 366.727 815.983 366.727" stroke="#C1D6F2" stroke-width="9.11793" stroke-miterlimit="10"/>
<path d="M574.965 170.32C637.427 170.32 697.34 210.025 757.516 205.455C817.691 200.884 924.332 147.088 1006.6 157.752C1088.86 168.416 1160.85 203.281 1252.9 132.139" stroke="#2065BF" stroke-width="18.2359" stroke-miterlimit="10"/>
<path d="M577.728 154.112C568.587 154.112 552.857 153.908 534.88 144.327C513.267 132.805 503.459 93.3866 481.749 93.3866C468.039 93.3866 445.473 93.3866 445.473 93.3866L450.348 168.888L449.783 168.88L445.473 248.396C445.473 248.396 468.039 248.396 481.749 248.396C503.459 248.396 513.267 208.977 534.88 197.456C552.857 187.875 568.587 187.671 577.728 187.671C586.868 187.671 587.535 170.891 587.535 170.891C587.535 170.891 586.868 154.112 577.728 154.112" fill="#57A9F2"/>
<path d="M403.197 170.891C403.197 143.735 407.052 119.299 413.195 102.277V77.7706H434.048C451.085 77.7706 464.897 119.463 464.897 170.891C464.897 222.321 451.085 264.012 434.048 264.012H413.195V239.505C407.052 222.484 403.197 198.048 403.197 170.891" fill="#3A7FD8"/>
<path d="M383.773 170.891C383.773 222.321 397.585 264.012 414.624 264.012C431.661 264.012 445.473 222.321 445.473 170.891C445.473 119.463 431.661 77.7706 414.624 77.7706C397.585 77.7706 383.773 119.463 383.773 170.891Z" fill="#57A9F2"/>
<path d="M410.625 136.328C410.625 142.995 412.415 148.4 414.624 148.4C416.832 148.4 418.623 142.995 418.623 136.328C418.623 129.661 416.832 124.257 414.624 124.257C412.415 124.257 410.625 129.661 410.625 136.328Z" fill="#2065BF"/>
<path d="M410.625 205.455C410.625 212.121 412.415 217.525 414.624 217.525C416.832 217.525 418.623 212.121 418.623 205.455C418.623 198.788 416.832 193.383 414.624 193.383C412.415 193.383 410.625 198.788 410.625 205.455Z" fill="#2065BF"/>
<path d="M245.82 376.212C245.82 379.764 222.015 382.644 192.649 382.644C163.284 382.644 139.479 379.764 139.479 376.212C139.479 372.657 163.284 369.777 192.649 369.777C222.015 369.777 245.82 372.657 245.82 376.212Z" fill="#C1D6F2"/>
<path d="M220.32 243.233C220.567 243.023 220.807 242.808 221.039 242.588C222.937 240.797 224.945 239.104 226.441 236.941C227.113 235.972 227.673 234.925 228.421 234.013C229.169 233.101 230.152 232.315 231.312 232.105C230.885 233.312 230.145 234.404 229.183 235.248C231.5 233.725 233.711 232.043 235.796 230.215C236.025 230.311 236.099 230.596 236.132 230.843C236.299 232.064 236.232 233.319 235.936 234.516C235.793 235.093 235.595 235.665 235.241 236.144C234.864 236.657 234.329 237.035 233.781 237.361C232.252 238.271 230.135 238.752 229.064 240.173C228.553 240.852 228.128 241.087 227.393 242.415C226.291 244.411 225.173 246.399 224.057 248.388C222.804 250.625 219.82 255.884 216.896 256.387C215.271 256.665 214.12 256.257 213.4 254.775C212.676 253.283 213.404 251.781 214.231 250.344C215.465 248.195 218.484 244.821 220.32 243.233" fill="#ECA76C"/>
<path d="M218.224 255.437C218.181 255.559 218.131 255.679 218.073 255.793C217.671 256.597 216.992 257.205 216.32 257.785C212.347 261.209 208.056 264.284 203.455 266.84C201.363 268 199.207 269.056 196.987 269.988C195.321 270.685 193.504 271.325 191.643 270.904C190.603 270.671 189.249 269.968 188.717 268.931C188.212 267.945 188.713 266.8 189.293 266.051C189.816 265.379 190.508 264.867 191.195 264.367C197.899 259.481 204.964 254.936 212.919 252.229C213.777 251.936 214.667 251.665 215.603 251.727C216.54 251.787 217.545 252.247 218.053 253.093C218.488 253.816 218.488 254.693 218.224 255.437Z" fill="#ECA76C"/>
<path d="M189.736 255.629C189.32 256.567 188.684 257.553 187.676 257.757C187.351 257.823 186.48 257.757 185.555 257.624C185.333 257.595 185.105 257.559 184.885 257.521C183.955 257.361 183.095 257.152 182.82 256.959C182.208 256.529 181.12 254.733 181.021 254.485C180.995 254.42 180.96 254.345 180.92 254.267C180.844 254.108 180.74 253.927 180.632 253.733C180.297 253.143 179.897 252.444 179.897 252.011C179.897 248.861 181.228 248.035 182.399 246.495C183.569 244.96 185.267 243.879 187.089 243.236C188.075 242.889 189.271 242.617 190.303 242.92C191.225 243.187 191.107 243.857 191.153 244.685C191.368 248.44 191.28 252.145 189.736 255.629" fill="#ECA76C"/>
<path d="M186.943 262.749C184.66 265.211 181.015 266.317 177.749 265.537C176.819 265.315 175.909 264.949 174.951 264.907C176.276 264.052 176.951 262.471 177.252 260.924C177.592 259.196 177.547 257.385 177.083 255.685C176.991 255.345 176.215 253.884 176.572 253.616C176.876 253.391 178.583 254.132 179.073 254.12C179.617 254.108 180.128 253.944 180.632 253.733C180.715 253.697 180.799 253.66 180.881 253.623L180.884 253.62C181.447 253.367 181.997 253.075 182.577 252.887C182.699 252.847 182.829 252.813 182.953 252.847C183.057 252.877 183.143 252.951 183.223 253.023C183.975 253.703 184.728 254.379 185.481 255.055C185.232 255.797 185.041 256.563 184.915 257.336C184.903 257.397 184.895 257.457 184.885 257.521C184.775 258.255 184.721 258.996 184.724 259.739C184.724 259.949 184.731 260.163 184.752 260.376C184.777 260.648 184.829 260.915 184.924 261.171C185.236 262.015 186.048 262.651 186.943 262.749" fill="#ECA76C"/>
<path d="M184.885 257.521C184.775 258.255 184.721 258.996 184.724 259.739C184.724 259.949 184.731 260.163 184.752 260.376C184.535 260.253 184.341 260.008 184.184 259.869C183.844 259.567 183.536 259.264 183.228 258.932C182.291 257.908 181.741 256.619 181.26 255.343C181.133 255.008 180.992 254.64 180.92 254.267C180.877 254.049 180.86 253.833 180.881 253.623C180.881 253.62 180.881 253.62 180.881 253.619L180.884 253.62C181.719 254.503 182.373 255.491 183.307 256.283C183.785 256.691 184.352 257.044 184.915 257.336C184.971 257.368 185.027 257.395 185.083 257.424C185.236 257.5 185.399 257.559 185.555 257.624C185.333 257.595 185.105 257.559 184.885 257.521" fill="#E17D27"/>
<path d="M182.431 256.601C183.039 256.095 183.629 255.557 184.099 254.919C185.227 253.381 185.545 251.393 186.491 249.737C187.099 248.671 187.968 247.753 189 247.088C189.859 246.533 190.832 246.148 191.596 245.471C192.761 244.437 193.297 242.827 193.292 241.271C193.287 239.715 192.793 238.2 192.175 236.771C191.585 237.429 190.657 237.652 189.781 237.769C187.365 238.095 184.905 237.879 182.479 238.104C180.051 238.332 177.523 239.097 175.939 240.951C174.261 242.916 173.971 245.688 173.923 248.271C173.899 249.576 173.917 250.889 174.176 252.167C174.513 253.829 175.259 255.409 176.329 256.724C178.112 258.913 180.493 258.216 182.431 256.601" fill="#3C69BA"/>
<path d="M187.071 249.172C186.875 248.859 186.625 248.56 186.289 248.404C185.952 248.249 185.515 248.268 185.252 248.528C185.047 248.729 184.979 249.04 185.007 249.325C185.036 249.611 185.147 249.881 185.257 250.148C185.643 251.073 186.037 252.016 186.679 252.788C186.791 252.923 186.951 253.063 187.117 253.012C187.216 252.983 187.283 252.892 187.337 252.804C187.337 252.575 187.66 252.153 187.725 251.901C187.816 251.553 187.845 251.195 187.823 250.836C187.799 250.843 187.856 250.904 187.783 250.897C187.427 250.489 187.387 249.677 187.071 249.172" fill="#ECA76C"/>
<path d="M172.957 374.049C172.865 374.739 172.775 375.453 172.988 376.113C173.416 377.44 174.979 378.124 176.368 378.001C177.756 377.881 179.007 377.149 180.197 376.425C182.147 375.241 184.092 374.021 185.763 372.469C186.392 371.884 186.991 371.239 187.337 370.453C187.683 369.667 187.745 368.715 187.319 367.971C186.656 366.812 185.06 366.524 183.768 366.856C182.477 367.187 181.36 367.981 180.151 368.543C178.504 369.308 177.536 369.885 175.848 370.537C173.833 371.316 173.229 372.02 172.957 374.049" fill="#6D9AD8"/>
<path d="M170.732 309.712C170.38 314.021 171.148 318.332 171.776 322.609C172.436 327.105 172.945 331.623 173.303 336.153C173.413 337.547 173.509 338.952 173.364 340.344C173.131 342.595 172.279 344.731 171.823 346.947C171.048 350.709 171.427 354.6 171.808 358.421C172.061 360.951 172.313 363.481 172.567 366.012C172.805 368.411 173.049 370.829 173.779 373.128C175.923 373.911 177.123 373.043 177.877 372.311C178.272 365.667 179.345 359.065 181.073 352.64C181.616 350.627 182.223 348.627 182.572 346.572C182.967 344.251 183.029 341.888 183.185 339.541C183.785 330.572 185.776 321.632 184.973 312.68C184.663 309.217 183.937 305.809 183.213 302.409C183.148 302.101 183.072 301.775 182.851 301.551C182.603 301.3 182.228 301.235 181.879 301.181C180.04 300.901 178.2 300.623 176.36 300.343C175.245 300.172 173.775 299.635 172.887 300.577C172.015 301.503 171.841 303.579 171.559 304.768C171.172 306.395 170.865 308.044 170.732 309.712" fill="#F2A71D"/>
<path d="M191.245 377.704C191.124 378.428 191.003 379.177 191.199 379.884C191.599 381.333 193.249 382.142 194.751 382.08C196.253 382.02 197.639 381.299 198.965 380.595C201.039 379.495 203.115 378.393 205.087 377.121C206.236 376.379 207.395 375.525 207.972 374.285C208.549 373.047 208.32 371.331 207.136 370.648C205.852 369.907 204.271 370.663 202.885 371.193C201.395 371.764 199.816 372.061 198.247 372.357C196.657 372.657 193.931 372.632 192.544 373.435C191.339 374.133 191.469 376.375 191.245 377.704" fill="#6D9AD8"/>
<path d="M181.451 317.697C182.357 319.053 183.449 320.284 184.307 321.675C185.476 323.573 186.175 325.717 186.863 327.839C188.747 333.647 190.651 339.56 190.748 345.665C190.817 349.94 189.996 354.183 189.887 358.457C189.815 361.3 190.056 364.141 190.299 366.976C190.547 369.883 190.795 372.791 191.044 375.699C193.409 375.923 195.841 375.416 197.92 374.265C197.52 367.072 198.287 359.856 199.524 352.759C200.123 349.329 200.831 345.915 201.14 342.448C201.708 336.088 200.92 329.695 200.133 323.357C199.157 315.493 198.163 307.549 195.417 300.117C195.603 300.621 182.216 301.915 181.064 302.029C176.793 302.456 177.959 307.605 178.597 310.699C179.109 313.181 180.041 315.584 181.451 317.697" fill="#F2A71D"/>
<path d="M178.391 335.853C178.816 337.293 179.304 338.725 179.509 340.213C179.744 341.929 179.595 343.672 179.445 345.397C179.276 347.356 179.105 349.316 178.936 351.273C178.497 356.34 178.121 361.421 177.3 366.439C176.971 368.452 177.659 370.076 177.873 372.336C179.844 365.948 180.743 359.949 181.963 353.377C183.336 345.973 183.736 338.428 184.135 330.908C184.249 328.737 184.364 326.565 184.48 324.395C184.537 323.293 184.58 322.124 184.036 321.165C183.493 320.211 182.475 319.649 181.543 319.065C179.136 317.559 177.589 315.389 175.484 313.64C174.733 314.641 175.425 317.251 175.523 318.453C175.683 320.413 175.868 322.373 176.108 324.324C176.585 328.215 177.277 332.089 178.391 335.853Z" fill="#D86F13"/>
<path d="M196.168 286.931C196.312 285.593 196.519 284.257 196.511 282.911C196.497 280.48 195.787 278.112 195.083 275.785C194.136 272.656 193.189 269.527 192.243 266.397C191.896 265.252 191.545 264.097 190.965 263.049C189.44 263.307 187.857 263.205 186.377 262.756L186.596 262.907C184.549 264.633 181.833 265.539 179.161 265.407C179.163 265.401 179.164 265.397 179.165 265.392C178.873 265.251 178.379 265.295 178.013 265.133C177.695 264.991 177.347 264.799 177.051 264.611C176.591 264.323 176.052 263.681 176.293 263.104C175.436 263.729 174.823 263.937 173.768 263.988C173.023 264.021 172.109 264.085 171.516 264.595C170.501 265.467 169.945 266.801 169.72 268.124C169.699 268.185 169.677 268.247 169.659 268.309C169.329 269.447 169.425 270.661 169.539 271.841C169.773 274.313 170.067 276.787 170.669 279.196C171.048 280.704 171.547 282.185 171.825 283.715C172.949 289.88 170.421 296.287 171.604 302.441C172.353 302.385 172.973 302.969 173.563 303.436C175.563 305.019 178.201 305.573 180.749 305.635C183.299 305.697 185.839 305.316 188.388 305.253C191.291 305.18 194.535 305.411 196.723 303.501C196.043 298.004 195.575 292.437 196.168 286.931" fill="#9EBEE6"/>
<path d="M190.593 265.18C189.793 264.708 188.701 265.163 188.181 265.932C187.663 266.701 187.577 267.676 187.559 268.604C187.441 274.177 189.096 279.632 189.553 285.187C189.651 286.363 189.692 287.56 189.399 288.703C189.113 289.807 188.527 290.809 188.163 291.889C187.447 294.012 187.617 296.331 188.015 298.536C188.415 300.74 189.033 302.913 189.195 305.148C191.951 304.997 194.683 304.435 197.272 303.48C197.435 303.42 197.608 303.348 197.692 303.197C197.779 303.044 197.745 302.853 197.709 302.68C196.652 297.443 196.715 292.045 197.068 286.715C197.157 285.363 197.264 284.004 197.161 282.652C197.067 281.407 196.793 280.184 196.519 278.965C195.855 276.02 195.113 272.947 193.123 270.677C192.393 269.847 191.511 269.144 190.892 268.227C190.273 267.311 189.961 266.065 190.504 265.101C190.755 265.48 191.004 265.859 191.255 266.236" fill="#5885C7"/>
<path d="M187.232 265.739C187.847 264.865 188.636 264.131 189.419 263.404C190.037 262.829 190.657 262.255 191.276 261.68C191.837 261.159 192.399 260.639 193.003 260.168C193.597 259.705 194.229 259.295 194.861 258.884C195.943 258.183 197.023 257.481 198.104 256.779C201.504 259.961 203.801 264.297 204.525 268.897C202.755 269.909 200.912 270.795 199.015 271.545C197.159 272.279 195.219 272.889 193.224 272.94C191.265 272.991 188.968 272.348 187.335 271.221C185.535 269.981 186.183 267.231 187.232 265.739" fill="#9EBEE6"/>
<path d="M185.043 260.444C185.173 260.58 185.097 260.531 185.007 260.447C185.017 260.447 185.032 260.447 185.043 260.444Z" fill="#5885C7"/>
<path d="M528.827 384.385C528.827 387.938 505.02 390.82 475.656 390.82C446.291 390.82 422.484 387.938 422.484 384.385C422.484 380.832 446.291 377.952 475.656 377.952C505.02 377.952 528.827 380.832 528.827 384.385" fill="#C1D6F2"/>
<path d="M461.959 278.216C462.509 278.472 463.172 278.472 463.768 278.469C464.976 278.463 466.175 278.387 467.351 278.087C469.309 277.588 470.865 276.419 472.581 275.416C473.099 275.115 473.583 274.749 474.1 274.455C474.375 274.299 474.733 274.229 474.951 274C474.515 273.788 473.963 273.939 473.491 273.72C472.164 273.107 471.315 271.663 470.903 270.331C470.739 269.803 470.575 269.256 470.435 268.707C470.339 268.331 470.256 267.956 470.192 267.587C470.16 267.404 470.133 267.195 470.117 266.971C470.067 266.319 470.089 265.545 470.277 264.985C470.339 264.9 470.401 264.815 470.46 264.729C470.203 264.733 469.949 264.417 469.697 264.411C469.339 264.399 468.909 264.891 468.649 265.111C467.952 265.704 467.268 266.335 466.353 266.559C465.151 266.856 463.765 267.279 462.541 267.039C462.976 267.657 463.187 268.555 463.329 269.324C463.347 269.413 463.361 269.497 463.376 269.584C463.513 270.361 463.696 271.095 463.667 271.889C463.667 271.912 463.667 271.935 463.664 271.959C463.621 272.753 463.511 273.531 463.305 274.297C462.941 275.652 462.616 276.985 461.959 278.216" fill="#D29026"/>
<path d="M459.543 257.453C459.392 258.372 458.889 259.131 458.833 260.08C458.752 261.435 458.775 262.879 459.169 264.183C459.949 266.764 461.779 269.459 463.804 271.231C466.889 273.928 469.825 268.791 470.583 266.223C471.228 264.04 471.769 261.027 470.533 258.963C469.544 257.309 468.08 255.577 466.145 255.111C464.761 254.777 462.968 254.924 461.715 255.653C460.912 256.119 460.212 257.536 459.543 257.453" fill="#ECA76C"/>
<path d="M469.483 261.147C467.495 258.519 464.516 259.467 463.341 259.303C461.093 258.989 459.616 257.163 459.403 255.023C459.291 253.889 459.125 252.415 459.48 251.356C460.431 251.593 461.119 252.092 462.205 251.881C463.343 251.66 464.24 251.18 465.435 251.136C467.637 251.052 470.189 251.551 471.683 253.28C473.673 255.585 474.6 258.629 474.523 261.656C474.501 262.56 472.087 270.131 470.475 269.032C469.889 268.632 470.189 265.396 470.12 264.645C470.033 263.711 469.8 261.565 469.483 261.147Z" fill="#1E3358"/>
<path d="M460.68 254.685C458.692 254.54 457.445 257.235 457.268 259.072C457.1 260.817 457.745 262.671 458.353 264.269C458.68 265.125 459.051 265.987 459.525 266.755C459.684 267.012 460.508 268.504 460.891 268.464C461.603 268.387 460.541 266.373 460.415 266.045C459.977 264.913 459.647 263.813 459.527 262.619C459.352 260.876 459.312 259.143 460.115 257.533C460.688 256.384 461.092 255.88 460.68 254.685" fill="#1E3358"/>
<path d="M469.517 262.388C469.747 261.767 469.748 261.249 470.245 260.809C470.597 260.496 471.051 260.348 471.413 260.772C472.157 261.643 471.168 262.851 470.76 263.609C470.541 264.019 470.188 264.408 469.989 264.805C469.851 264.327 469.86 263.809 469.764 263.332C469.716 263.095 469.653 262.355 469.517 262.388" fill="#ECA76C"/>
<path d="M480.461 374.492C480.976 375.5 480.387 377.335 480.569 378.54C480.745 379.709 481.569 380.609 482.273 381.575C483.295 382.977 486.227 385.621 485.351 387.538C484.228 390.001 481.192 388.969 479.613 387.777C477.979 386.544 477.48 384.442 476.205 382.905C475.168 381.654 475.116 380.616 475.433 379.071C475.739 377.584 475.712 376.083 475.792 374.505C476.787 374.38 477.864 374.66 478.864 374.705C479.324 374.725 480.671 374.804 480.461 374.492" fill="#6190D5"/>
<path d="M466.82 374.279C466.947 375.705 466.5 377.223 466.767 378.645C466.995 379.855 468.115 381.245 467.779 382.585C467.445 383.913 465.731 383.964 464.608 384.313C463.441 384.675 462.653 385.442 461.896 386.417C460.367 388.38 456.713 388.935 454.784 386.954C453.912 386.06 453.725 384.416 454.656 383.624C455.643 382.785 457.095 382.837 458.191 382.211C461.137 380.523 462.639 377.849 462.432 374.288C463.896 374.407 465.208 374.665 466.631 374.46C466.697 374.621 466.655 374.773 466.82 374.279" fill="#6190D5"/>
<path d="M477.711 306.464C478.959 307.013 479.627 310.211 480.133 311.469C480.923 313.428 481.456 315.556 481.748 317.647C482.569 323.497 481.739 329.312 481.123 335.116C480.877 337.419 480.436 339.716 480.261 342.033C480.079 344.444 480.737 347.488 481.624 349.679C482.601 352.101 483.151 356.432 482.789 359.049C482.419 361.719 482.673 361.967 482.4 364.639C482.145 367.119 481.879 369.621 481.757 372.089C481.712 373.028 481.605 373.935 481.649 374.885C481.699 375.901 481.424 376.835 481.42 377.801C481.42 377.977 481.276 378.115 481.1 378.111C479.008 378.053 476.359 378.148 474.447 377.531C474.369 377.505 474.315 377.436 474.305 377.357C473.795 372.971 472.956 368.597 472.069 364.26C470.699 357.541 469.461 350.797 468.145 344.068C466.916 337.785 465.677 331.368 464.867 324.999C464.484 321.989 464.292 318.957 464.291 315.923C464.289 314.453 464.3 312.991 464.385 311.524C464.421 310.897 464.24 309.605 464.771 309.228C465.381 308.793 467.788 309.045 468.611 308.975C470.093 308.844 471.453 308.727 472.904 308.332C474.663 307.855 476.524 307.304 478.213 306.733C477.752 306.761 477.301 306.848 477.711 306.464" fill="#F2A71D"/>
<path d="M469.208 309.229C469.275 309.229 469.34 309.229 469.403 309.232C469.332 309.112 469.265 309.132 469.208 309.229Z" fill="#4F4E4E"/>
<path d="M454.069 328.292C454.069 334.859 455.348 341.324 456.725 347.716C458.132 354.252 459.281 360.741 460.216 367.355C460.569 369.857 460.719 372.452 461.215 374.892C461.308 375.353 461.387 376.385 461.629 376.749C462.085 377.437 463.052 377.176 463.975 377.176C464.76 377.176 465.755 377.355 466.504 377.259C467.561 377.124 467.66 376.597 467.815 375.521C468.407 371.437 468.464 368.288 468.659 365.072C468.813 362.491 469.112 360.171 468.891 357.628C468.877 357.461 468.86 357.295 468.843 357.127C468.373 352.961 467.757 348.832 467.201 344.691C466.973 342.992 466.995 341.301 467.117 339.611C467.259 337.539 467.551 335.468 467.704 333.393C468.28 325.631 467.433 317.843 468.955 310.187C469.013 309.889 469.097 309.417 469.208 309.229C465.091 309.223 459.071 311.743 455.447 308.841C455.529 312.155 454.551 315.251 454.388 318.496C454.227 321.732 454.069 324.981 454.069 328.292" fill="#F2A71D"/>
<path d="M454.712 309.119C454.827 305.807 455.137 302.519 455.141 299.199C455.144 296.019 455.193 292.861 455.369 289.685C455.447 288.301 455.621 286.884 455.427 285.5C455.228 284.08 455.069 282.704 455.069 281.26C455.069 279.931 454.969 277.185 456.347 276.548C457.396 276.065 458.515 275.631 459.56 275.124C460.719 274.561 462.224 273.496 463.509 273.36C463.496 273.573 463.523 273.896 463.567 274.031C463.551 274.049 463.537 274.067 463.523 274.087C463.632 275.624 465.088 276.227 466.431 276.425C468.243 276.696 469.865 276.244 471.223 274.92C471.783 274.375 472.321 273.601 472.46 272.868C473.208 273.269 474.051 273.359 474.911 273.407C475.347 273.616 475.819 273.777 476.297 273.88C477.112 274.184 477.949 274.425 478.776 274.712C479.459 275.257 480.211 275.661 481.113 275.752C481.671 276.06 482.213 276.397 482.729 276.745C482.837 277.051 482.913 277.381 482.98 277.731C483.388 279.855 483.659 281.837 482.448 283.669C481.917 284.471 479.163 288.935 479.063 289.316C478.871 290.052 479.068 291.115 479.068 291.888V292.24C479.065 293.279 479.059 294.321 479.068 295.36C479.097 299.112 479.757 302.797 480.345 306.499C480.561 307.848 480.793 309.212 481.084 310.549C481.135 310.783 481.188 311.012 481.241 311.243C481.443 312.095 481.839 313.297 481.683 314.171C481.269 314.14 480.685 314.356 480.275 314.448C478.461 314.857 476.739 315.703 474.876 315.959C471.864 316.369 468.752 316.509 465.701 316.523C462.345 316.537 458.251 317.396 455.301 315.297C454.645 314.831 454.856 314.133 454.856 313.309C454.86 311.909 454.665 310.523 454.712 309.119" fill="#C4DFF8"/>
<path d="M476.267 281.716C477.344 282.672 479.583 281.861 480.676 281.315C482.037 280.633 483.071 279.32 483.957 278.149C486.78 274.424 489.607 270.737 492.051 266.697C493.264 264.693 494.953 262.881 495.787 260.724C495.969 260.247 495.523 258.732 495.408 258.236C495.227 257.444 494.352 257.775 493.716 257.997C490.148 259.251 487.457 262.288 484.968 265.071C484.015 266.136 483.271 267.348 482.317 268.429C480.864 270.08 479.392 271.755 478.184 273.592C477.249 275.017 476.451 276.813 476 278.452C475.776 279.268 475.459 280.401 475.816 281.231C476.044 281.764 476.46 281.999 476.267 281.716" fill="#ECA76C"/>
<path d="M494.909 261.525C495.785 260.9 495.983 259.759 496.227 258.791C497.031 255.589 497.28 252.239 497.655 248.933C497.96 246.225 497.643 243.439 498.204 240.709C498.728 238.157 499.969 235.701 500.259 233.081C500.417 231.641 500.46 229.353 499.705 227.804C499.403 227.181 498.567 227.053 498.089 227.556C497.856 227.803 497.648 228.061 497.519 228.295C497.197 228.877 497.177 229.891 496.96 230.571C496.545 231.88 495.896 233.235 495.605 234.549C495.4 233.971 495.496 232.887 495.563 231.944C495.583 231.656 495.176 231.571 495.08 231.845C494.648 233.099 494.261 234.648 494.119 235.651C493.935 236.944 494.608 238.664 494.463 239.975C494.208 242.287 493.239 243.957 492.617 246.207C491.592 249.915 489.78 253.887 490.115 257.823C490.199 258.808 489.921 260.469 490.747 261.216C491.329 261.744 494.02 262.16 494.909 261.525" fill="#ECA76C"/>
<path d="M453.693 291.5C453.661 291.464 453.625 291.428 453.589 291.393C453.563 291.491 453.593 291.531 453.693 291.5Z" fill="#4F4E4E"/>
<path d="M463.235 329.367C463.547 332.733 464.007 336.115 465.152 339.32C466.019 341.736 466.456 344.439 466.575 346.989C466.628 348.113 466.435 349.193 466.431 350.316C466.424 351.619 466.625 352.901 466.848 354.185C467.057 355.38 467.451 356.503 467.883 357.629C468.173 358.388 468.391 359.219 468.848 359.897C468.836 359.149 468.859 358.389 468.891 357.628C468.877 357.461 468.86 357.295 468.843 357.127C468.373 352.961 467.757 348.832 467.201 344.691C466.973 342.992 466.995 341.301 467.117 339.611C466.796 338.22 466.572 336.748 466.431 335.343C466.287 333.907 465.985 332.476 465.929 331.025C465.875 329.656 465.917 327.619 465.38 326.376C464.937 325.353 463.64 324.891 462.82 324.255C462.733 325.928 463.076 327.681 463.235 329.367" fill="#D86F13"/>
<path d="M489.42 270.491C488.975 269.924 488.388 269.373 487.855 268.877C487.261 268.324 486.672 267.767 486.08 267.209C485.737 266.885 485.393 266.632 484.987 266.404C484.541 266.153 483.765 266.003 483.492 265.607C483.185 265.821 482.455 266.611 481.919 267.051C481.093 267.731 480.268 268.301 479.524 269.084C478.672 269.983 477.688 270.775 476.711 271.516C475.493 272.439 474.101 273.281 472.608 273.516C472.384 273.979 472.173 274.448 471.929 274.908C471.687 275.369 471.395 275.768 471.06 276.127C471.059 276.161 471.059 276.199 471.059 276.233C471.04 276.971 470.981 277.687 470.856 278.416C470.725 279.185 470.436 279.877 470.725 280.631C471.363 282.299 472.612 283.499 473.853 284.729C475.293 286.157 476.404 287.783 477.553 289.447C477.716 289.681 477.863 289.948 478.013 290.209C478.096 289.576 478.245 288.955 478.511 288.372C479.255 286.731 480.637 285.029 482.028 283.892C482.163 283.781 482.305 283.731 482.448 283.669C482.983 282.821 483.527 281.98 484.072 281.123C485.016 279.636 485.56 278.064 486.349 276.536C486.86 275.547 487.555 274.727 488.109 273.76C488.508 273.065 488.847 272.289 489.311 271.663C489.707 271.129 489.879 271.077 489.42 270.491" fill="#C4DFF8"/>
<path d="M235.008 323.36C235.008 322.336 235.184 321.32 235.536 320.312C235.904 319.288 236.432 318.376 237.12 317.576C237.808 316.776 238.656 316.128 239.664 315.632C240.672 315.12 241.816 314.864 243.096 314.864C244.616 314.864 245.912 315.208 246.984 315.896C248.072 316.584 248.872 317.48 249.384 318.584L248.064 319.4C247.792 318.84 247.456 318.368 247.056 317.984C246.672 317.6 246.256 317.288 245.808 317.048C245.36 316.808 244.896 316.64 244.416 316.544C243.936 316.432 243.464 316.376 243 316.376C241.976 316.376 241.072 316.584 240.288 317C239.504 317.416 238.84 317.96 238.296 318.632C237.768 319.304 237.368 320.064 237.096 320.912C236.824 321.744 236.688 322.592 236.688 323.456C236.688 324.4 236.848 325.304 237.168 326.168C237.504 327.032 237.952 327.8 238.512 328.472C239.088 329.128 239.76 329.656 240.528 330.056C241.312 330.44 242.16 330.632 243.072 330.632C243.552 330.632 244.04 330.576 244.536 330.464C245.048 330.336 245.536 330.144 246 329.888C246.48 329.616 246.92 329.288 247.32 328.904C247.72 328.504 248.056 328.024 248.328 327.464L249.72 328.184C249.448 328.824 249.064 329.392 248.568 329.888C248.072 330.368 247.52 330.776 246.912 331.112C246.304 331.448 245.656 331.704 244.968 331.88C244.296 332.056 243.632 332.144 242.976 332.144C241.808 332.144 240.736 331.888 239.76 331.376C238.784 330.864 237.944 330.2 237.24 329.384C236.536 328.552 235.984 327.616 235.584 326.576C235.2 325.52 235.008 324.448 235.008 323.36ZM252.325 314.48H253.957V329.168C253.957 329.632 254.085 330 254.341 330.272C254.597 330.528 254.957 330.656 255.421 330.656C255.597 330.656 255.805 330.632 256.045 330.584C256.285 330.536 256.509 330.472 256.717 330.392L257.005 331.712C256.701 331.84 256.325 331.944 255.877 332.024C255.445 332.104 255.069 332.144 254.749 332.144C253.997 332.144 253.405 331.936 252.973 331.52C252.541 331.088 252.325 330.488 252.325 329.72V314.48ZM261.936 332.24C261.344 332.24 260.792 332.144 260.28 331.952C259.784 331.744 259.344 331.464 258.96 331.112C258.592 330.76 258.304 330.352 258.096 329.888C257.888 329.408 257.784 328.896 257.784 328.352C257.784 327.808 257.912 327.304 258.168 326.84C258.424 326.376 258.784 325.976 259.248 325.64C259.712 325.304 260.264 325.048 260.904 324.872C261.544 324.68 262.248 324.584 263.016 324.584C263.656 324.584 264.304 324.64 264.96 324.752C265.616 324.864 266.2 325.024 266.712 325.232V324.104C266.712 323 266.4 322.128 265.776 321.488C265.152 320.832 264.288 320.504 263.184 320.504C262.544 320.504 261.888 320.632 261.216 320.888C260.544 321.144 259.864 321.512 259.176 321.992L258.6 320.912C260.216 319.824 261.784 319.28 263.304 319.28C264.872 319.28 266.104 319.72 267 320.6C267.896 321.48 268.344 322.696 268.344 324.248V329.888C268.344 330.336 268.544 330.56 268.944 330.56V332C268.672 332.048 268.464 332.072 268.32 332.072C267.904 332.072 267.576 331.968 267.336 331.76C267.112 331.552 266.992 331.264 266.976 330.896L266.928 329.912C266.352 330.664 265.624 331.24 264.744 331.64C263.88 332.04 262.944 332.24 261.936 332.24ZM262.32 330.992C263.168 330.992 263.944 330.832 264.648 330.512C265.368 330.192 265.912 329.768 266.28 329.24C266.424 329.096 266.528 328.944 266.592 328.784C266.672 328.608 266.712 328.448 266.712 328.304V326.264C266.168 326.056 265.6 325.896 265.008 325.784C264.432 325.672 263.84 325.616 263.232 325.616C262.08 325.616 261.144 325.856 260.424 326.336C259.704 326.816 259.344 327.448 259.344 328.232C259.344 328.616 259.416 328.976 259.56 329.312C259.72 329.648 259.928 329.944 260.184 330.2C260.456 330.44 260.776 330.632 261.144 330.776C261.512 330.92 261.904 330.992 262.32 330.992ZM276.022 332.24C275.046 332.24 274.094 332.08 273.166 331.76C272.238 331.44 271.438 330.976 270.766 330.368L271.51 329.264C272.214 329.84 272.926 330.272 273.646 330.56C274.382 330.848 275.166 330.992 275.998 330.992C277.006 330.992 277.806 330.792 278.398 330.392C279.006 329.976 279.31 329.392 279.31 328.64C279.31 328.288 279.23 328 279.07 327.776C278.91 327.536 278.67 327.328 278.35 327.152C278.046 326.976 277.654 326.824 277.174 326.696C276.71 326.552 276.166 326.408 275.542 326.264C274.822 326.088 274.198 325.912 273.67 325.736C273.142 325.56 272.702 325.36 272.35 325.136C272.014 324.912 271.758 324.64 271.582 324.32C271.422 323.984 271.342 323.568 271.342 323.072C271.342 322.448 271.462 321.896 271.702 321.416C271.958 320.936 272.294 320.544 272.71 320.24C273.142 319.92 273.638 319.68 274.198 319.52C274.774 319.36 275.382 319.28 276.022 319.28C276.982 319.28 277.854 319.44 278.638 319.76C279.422 320.064 280.054 320.472 280.534 320.984L279.742 321.944C279.278 321.464 278.71 321.104 278.038 320.864C277.382 320.624 276.694 320.504 275.974 320.504C275.542 320.504 275.142 320.552 274.774 320.648C274.406 320.728 274.078 320.864 273.79 321.056C273.518 321.248 273.302 321.496 273.142 321.8C272.982 322.088 272.902 322.432 272.902 322.832C272.902 323.168 272.958 323.44 273.07 323.648C273.182 323.856 273.366 324.04 273.622 324.2C273.878 324.344 274.198 324.48 274.582 324.608C274.982 324.72 275.462 324.84 276.022 324.968C276.822 325.16 277.526 325.352 278.134 325.544C278.742 325.736 279.246 325.96 279.646 326.216C280.062 326.472 280.374 326.784 280.582 327.152C280.79 327.52 280.894 327.968 280.894 328.496C280.894 329.648 280.454 330.56 279.574 331.232C278.694 331.904 277.51 332.24 276.022 332.24ZM287.718 332.24C286.742 332.24 285.79 332.08 284.862 331.76C283.934 331.44 283.134 330.976 282.462 330.368L283.206 329.264C283.91 329.84 284.622 330.272 285.342 330.56C286.078 330.848 286.862 330.992 287.694 330.992C288.702 330.992 289.502 330.792 290.094 330.392C290.702 329.976 291.006 329.392 291.006 328.64C291.006 328.288 290.926 328 290.766 327.776C290.606 327.536 290.366 327.328 290.046 327.152C289.742 326.976 289.35 326.824 288.87 326.696C288.406 326.552 287.862 326.408 287.238 326.264C286.518 326.088 285.894 325.912 285.366 325.736C284.838 325.56 284.398 325.36 284.046 325.136C283.71 324.912 283.454 324.64 283.278 324.32C283.118 323.984 283.038 323.568 283.038 323.072C283.038 322.448 283.158 321.896 283.398 321.416C283.654 320.936 283.99 320.544 284.406 320.24C284.838 319.92 285.334 319.68 285.894 319.52C286.47 319.36 287.078 319.28 287.718 319.28C288.678 319.28 289.55 319.44 290.334 319.76C291.118 320.064 291.75 320.472 292.23 320.984L291.438 321.944C290.974 321.464 290.406 321.104 289.734 320.864C289.078 320.624 288.39 320.504 287.67 320.504C287.238 320.504 286.838 320.552 286.47 320.648C286.102 320.728 285.774 320.864 285.486 321.056C285.214 321.248 284.998 321.496 284.838 321.8C284.678 322.088 284.598 322.432 284.598 322.832C284.598 323.168 284.654 323.44 284.766 323.648C284.878 323.856 285.062 324.04 285.318 324.2C285.574 324.344 285.894 324.48 286.278 324.608C286.678 324.72 287.158 324.84 287.718 324.968C288.518 325.16 289.222 325.352 289.83 325.544C290.438 325.736 290.942 325.96 291.342 326.216C291.758 326.472 292.07 326.784 292.278 327.152C292.486 327.52 292.59 327.968 292.59 328.496C292.59 329.648 292.15 330.56 291.27 331.232C290.39 331.904 289.206 332.24 287.718 332.24ZM303.394 318.08V332H301.714V314.96H303.01L314.29 329.144V314.984H315.97V332H314.506L303.394 318.08ZM325.081 332.24C324.169 332.24 323.337 332.072 322.585 331.736C321.833 331.384 321.177 330.912 320.617 330.32C320.073 329.728 319.649 329.04 319.345 328.256C319.041 327.472 318.889 326.648 318.889 325.784C318.889 324.904 319.041 324.072 319.345 323.288C319.665 322.504 320.097 321.816 320.641 321.224C321.201 320.632 321.857 320.16 322.609 319.808C323.361 319.456 324.185 319.28 325.081 319.28C325.977 319.28 326.801 319.456 327.553 319.808C328.321 320.16 328.977 320.632 329.521 321.224C330.081 321.816 330.513 322.504 330.817 323.288C331.137 324.072 331.297 324.904 331.297 325.784C331.297 326.648 331.145 327.472 330.841 328.256C330.537 329.04 330.105 329.728 329.545 330.32C329.001 330.912 328.345 331.384 327.577 331.736C326.825 332.072 325.993 332.24 325.081 332.24ZM320.545 325.808C320.545 326.512 320.665 327.168 320.905 327.776C321.145 328.368 321.465 328.896 321.865 329.36C322.281 329.808 322.761 330.16 323.305 330.416C323.865 330.672 324.457 330.8 325.081 330.8C325.705 330.8 326.289 330.672 326.833 330.416C327.393 330.144 327.881 329.784 328.297 329.336C328.713 328.872 329.041 328.336 329.281 327.728C329.521 327.12 329.641 326.464 329.641 325.76C329.641 325.072 329.521 324.424 329.281 323.816C329.041 323.192 328.713 322.656 328.297 322.208C327.881 321.744 327.393 321.384 326.833 321.128C326.289 320.856 325.705 320.72 325.081 320.72C324.457 320.72 323.873 320.856 323.329 321.128C322.785 321.384 322.305 321.744 321.889 322.208C321.473 322.672 321.145 323.216 320.905 323.84C320.665 324.448 320.545 325.104 320.545 325.808ZM339.863 331.4C339.767 331.448 339.623 331.512 339.431 331.592C339.255 331.672 339.047 331.752 338.807 331.832C338.567 331.912 338.295 331.984 337.991 332.048C337.687 332.112 337.367 332.144 337.031 332.144C336.679 332.144 336.343 332.096 336.023 332C335.703 331.904 335.423 331.76 335.183 331.568C334.943 331.36 334.751 331.104 334.607 330.8C334.463 330.496 334.391 330.144 334.391 329.744V320.792H332.663V319.496H334.391V315.272H336.023V319.496H338.903V320.792H336.023V329.288C336.055 329.752 336.215 330.096 336.503 330.32C336.807 330.528 337.151 330.632 337.535 330.632C337.999 330.632 338.407 330.56 338.759 330.416C339.111 330.256 339.335 330.144 339.431 330.08L339.863 331.4ZM348.355 332V314.96H359.539V316.448H350.035V322.712H358.051V324.104H350.035V332H348.355ZM366.659 332.24C365.747 332.24 364.915 332.072 364.163 331.736C363.411 331.384 362.755 330.912 362.195 330.32C361.651 329.728 361.227 329.04 360.923 328.256C360.619 327.472 360.467 326.648 360.467 325.784C360.467 324.904 360.619 324.072 360.923 323.288C361.243 322.504 361.675 321.816 362.219 321.224C362.779 320.632 363.435 320.16 364.187 319.808C364.939 319.456 365.763 319.28 366.659 319.28C367.555 319.28 368.379 319.456 369.131 319.808C369.899 320.16 370.555 320.632 371.099 321.224C371.659 321.816 372.091 322.504 372.395 323.288C372.715 324.072 372.875 324.904 372.875 325.784C372.875 326.648 372.723 327.472 372.419 328.256C372.115 329.04 371.683 329.728 371.123 330.32C370.579 330.912 369.923 331.384 369.155 331.736C368.403 332.072 367.571 332.24 366.659 332.24ZM362.123 325.808C362.123 326.512 362.243 327.168 362.483 327.776C362.723 328.368 363.043 328.896 363.443 329.36C363.859 329.808 364.339 330.16 364.883 330.416C365.443 330.672 366.035 330.8 366.659 330.8C367.283 330.8 367.867 330.672 368.411 330.416C368.971 330.144 369.459 329.784 369.875 329.336C370.291 328.872 370.619 328.336 370.859 327.728C371.099 327.12 371.219 326.464 371.219 325.76C371.219 325.072 371.099 324.424 370.859 323.816C370.619 323.192 370.291 322.656 369.875 322.208C369.459 321.744 368.971 321.384 368.411 321.128C367.867 320.856 367.283 320.72 366.659 320.72C366.035 320.72 365.451 320.856 364.907 321.128C364.363 321.384 363.883 321.744 363.467 322.208C363.051 322.672 362.723 323.216 362.483 323.84C362.243 324.448 362.123 325.104 362.123 325.808ZM379.517 332.24C378.157 332.24 377.141 331.792 376.469 330.896C375.813 329.984 375.485 328.632 375.485 326.84V319.496H377.117V326.552C377.117 329.384 378.085 330.8 380.021 330.8C380.501 330.8 380.973 330.72 381.437 330.56C381.901 330.4 382.325 330.168 382.709 329.864C383.109 329.56 383.461 329.2 383.765 328.784C384.085 328.368 384.341 327.896 384.533 327.368V319.496H386.165V329.888C386.165 330.336 386.357 330.56 386.741 330.56V332C386.549 332.032 386.389 332.048 386.261 332.048C386.149 332.048 386.069 332.048 386.021 332.048C385.637 332.032 385.325 331.896 385.085 331.64C384.845 331.384 384.725 331.04 384.725 330.608V329.168C384.181 330.144 383.437 330.904 382.493 331.448C381.565 331.976 380.573 332.24 379.517 332.24ZM400.367 332H398.735V325.016C398.735 323.528 398.511 322.448 398.063 321.776C397.631 321.104 396.959 320.768 396.047 320.768C395.567 320.768 395.087 320.856 394.607 321.032C394.127 321.208 393.679 321.456 393.263 321.776C392.863 322.096 392.503 322.48 392.183 322.928C391.863 323.36 391.631 323.832 391.487 324.344V332H389.855V319.496H391.343V322.328C391.855 321.416 392.583 320.68 393.527 320.12C394.487 319.56 395.527 319.28 396.647 319.28C397.335 319.28 397.919 319.408 398.399 319.664C398.879 319.92 399.263 320.28 399.551 320.744C399.839 321.208 400.047 321.776 400.175 322.448C400.303 323.12 400.367 323.864 400.367 324.68V332ZM408.983 332.24C408.119 332.24 407.319 332.064 406.583 331.712C405.847 331.344 405.215 330.864 404.687 330.272C404.159 329.68 403.743 329 403.439 328.232C403.151 327.448 403.007 326.632 403.007 325.784C403.007 324.904 403.151 324.072 403.439 323.288C403.727 322.488 404.119 321.792 404.615 321.2C405.127 320.608 405.727 320.144 406.415 319.808C407.119 319.456 407.887 319.28 408.719 319.28C409.775 319.28 410.711 319.56 411.527 320.12C412.343 320.664 412.983 321.328 413.447 322.112V314.48H415.079V329.888C415.079 330.336 415.271 330.56 415.655 330.56V332C415.415 332.048 415.223 332.072 415.079 332.072C414.695 332.072 414.359 331.952 414.071 331.712C413.783 331.456 413.639 331.152 413.639 330.8V329.576C413.143 330.392 412.471 331.04 411.623 331.52C410.775 332 409.895 332.24 408.983 332.24ZM409.343 330.8C409.743 330.8 410.167 330.72 410.615 330.56C411.079 330.4 411.511 330.184 411.911 329.912C412.311 329.624 412.647 329.296 412.919 328.928C413.207 328.544 413.383 328.136 413.447 327.704V323.84C413.287 323.408 413.055 323.008 412.751 322.64C412.447 322.256 412.095 321.92 411.695 321.632C411.311 321.344 410.895 321.12 410.447 320.96C409.999 320.8 409.559 320.72 409.127 320.72C408.455 320.72 407.847 320.864 407.303 321.152C406.759 321.44 406.287 321.824 405.887 322.304C405.503 322.768 405.207 323.304 404.999 323.912C404.791 324.52 404.687 325.144 404.687 325.784C404.687 326.456 404.807 327.096 405.047 327.704C405.287 328.312 405.615 328.848 406.031 329.312C406.447 329.76 406.935 330.12 407.495 330.392C408.071 330.664 408.687 330.8 409.343 330.8Z" fill="#0367BF"/>
</g>
<defs>
<clipPath id="clip0">
<rect width="667" height="397" fill="white"/>
</clipPath>
</defs>
</svg>
